# xmcd
#
# Track frame offsets: 
#        150
#        18952
#        37705
#        57865
#        81857
#        108727
#        128880
#        153717
#        173590
#        197295
#        219187
#        246245
#        266307
#        291630
#
# Disc length: 4200 seconds
#
# Revision: 0
# Processed by: cddbd v1.5.2PL0 Copyright (c) Steve Scherf et al.
# Submitted via: ExactAudioCopy v0.99pb4
#
DISCID=ba10660e
DTITLE=Juewett Bostick - It' Not So Easy
DYEAR=2003
DGENRE=R&B
TTITLE0=Precious Love (Featuring Denise Stewart On Vocals)
TTITLE1=You Need Love (Featuring Ali Woodson)
TTITLE2=It's Not So Easy (Featuring Denise Stewart On Vocals)
TTITLE3=You Go To My Head (Re-make Of The Jazz Standard Feat. Stewart)
TTITLE4=Elsi N' Me (Featuring Juewett Bostick On Guitar, Stewart On Vo
TTITLE4=cals)
TTITLE5=What Will I Do (Featured Duet With Jean Carn And Ali Woodson)
TTITLE6=Just Like This (Featured Vocalist Denise Stewart)
TTITLE7=I Can't Tell You Why (Remake Of The Eagle's Hit Featuring Jean
TTITLE7=Carn)
TTITLE8=Kellie's Theme (Featuring Juewett Bostick On Guitar)
TTITLE9=Forever More (Featured Vocalist Denise Stewart)
TTITLE10=T.L.G ((Taylor Louis Gite) Featuring Art Webb)
TTITLE11=It's Not So Easy (Instr.)
TTITLE12=Elsi N' Me (No Vocal)
TTITLE13=Kellie's Theme (Vocal)
EXTD=
EXTT0=
EXTT1=
EXTT2=
EXTT3=
EXTT4=
EXTT5=
EXTT6=
EXTT7=
EXTT8=
EXTT9=
EXTT10=
EXTT11=
EXTT12=
EXTT13=
PLAYORDER=
